<?xml version="1.0" standalone="no"?><!DOCTYPE svg PUBLIC "-//W3C//DTD SVG 1.1//EN" "http://www.w3.org/Graphics/SVG/1.1/DTD/svg11.dtd"><svg t="1565322867730" class="icon" viewBox="0 0 1024 1024" version="1.1" xmlns="http://www.w3.org/2000/svg" p-id="1120" xmlns:xlink="http://www.w3.org/1999/xlink" width="200" height="200"><defs><style type="text/css"></style></defs><path d="M987.428571 369.714286q0 12.571429-14.857142 27.428571l-207.428572 202.285714 49.142857 285.714286q0.571429 4 0.571429 11.428572 0 12-6 20.285714T791.428571 925.142857q-10.857143 0-22.857142-6.857143l-256.571429-134.857143-256.571429 134.857143q-12.571429 6.857143-22.857142 6.857143-12 0-18-8.285714T208.571429 896.571429q0-3.428571 1.142857-11.428572l49.142857-285.714286L50.857143 397.142857q-14.285714-15.428571-14.285714-27.428571 0-21.142857 32-26.285715l286.857142-41.714285L484 41.714286q10.857143-23.428571 28-23.428572t28 23.428572l128.571429 260 286.857142 41.714285q32 5.142857 32 26.285715z" p-id="1121"></path></svg>