<svg width="580" height="400" xmlns="http://www.w3.org/2000/svg">
 <!-- Created with Method Draw - http://github.com/duopixel/Method-Draw/ -->
 <g>
  <title>background</title>
  <rect fill="#fff" id="canvas_background" height="402" width="582" y="-1" x="-1"/>
  <g display="none" overflow="visible" y="0" x="0" height="100%" width="100%" id="canvasGrid">
   <rect fill="url(#gridpattern)" stroke-width="0" y="0" x="0" height="100%" width="100%"/>
  </g>
 </g>
 <g>
  <title>Layer 1</title>
  <path d="m65.5,112.037498c0,0 0,3 0,9c0,13.000008 -2.710567,31.104897 -1,45.000008c1.511322,12.276642 12,17 27,17c24,0 46.798355,-3.090973 71,-7c25.837646,-4.173264 50.498566,-4.780243 73,-11c13.424957,-3.710876 19.152237,-7.234634 21,-8c9.145935,-3.788376 8,-16 8,-20c0,-9 1.324036,-16.225494 0,-20.000008c-2.119476,-6.042168 -7.80484,-11.279572 -12,-14c-8.638336,-5.601715 -19.770691,-7.994164 -46,-10c-18.944687,-1.448761 -34.818344,1.309921 -50,10c-10.874466,6.224617 -17.499039,13.953323 -18,22c-0.497101,7.98455 1.347534,20.687004 15,33.000008c15.309021,13.807022 34.78688,20.994949 63,23c20.947174,1.488663 42,0 61,0c11,0 18.292908,0.707108 19,0c0.707092,-0.707108 2.333282,-6.865646 3,-9c2.108368,-6.749435 13.081451,-16.908005 21,-24c12.126343,-10.860565 18.432831,-18.651077 24,-26.000008c2.177185,-2.873993 2,-5 0,-5c-4,0 -7.366455,5.933647 -9,16.000008c-1.291443,7.95816 -1,12 -1,12c0,2 13.342285,4.593964 23,2c21.203003,-5.694931 40.541046,-23.231453 58,-40.000008c13.298706,-12.772804 16,-22 16,-24c0,-1 -3.039368,-3.732773 -14,2c-37.67807,19.706909 -71.423035,64.858116 -87,112.000008c-12.069946,36.52829 -10.043518,69.373383 8,82c14.770386,10.336121 41.527557,9.647614 73,2c33.801453,-8.213531 62.10083,-21.470978 73,-38c5.928955,-8.991516 4.176239,-14.486252 2,-15c-0.973236,-0.229752 -2,-1 -2,-3c0,0 -1.502747,-1.598083 -5,-4c-8.11853,-5.57579 -26.76532,-12.0728 -61,-19c-52.690887,-10.661697 -98.811249,-16.502487 -122,-10c-19.377197,5.43367 -33.537415,20.550598 -46,36c-6.278564,7.783295 -10.098068,12.91803 -10,19c0.082214,5.098358 7.263657,14.865479 13,19c5.441986,3.922363 11,4 11,3c0,-3 -8.017395,0.559235 -17,0c-24.14003,-1.502899 -58.876785,-10.498657 -135,-13c-35.980583,-1.182297 -59.029854,0.545593 -64,0c-9.164494,-1.006012 -10,-3 -10,-4c0,-3 0,-6 0,-9c0,-2 1.754917,-6.173141 11,-19c14.61776,-20.281052 30.619835,-46.81488 56,-60c22.449554,-11.662659 51.397064,-15.865005 84,-5c37.78186,12.590881 60.968506,40.935349 69,68c8.091736,27.267639 10.889099,51.069336 2,80c-4.597198,14.962158 -10,22 -12,25l0,0l-1,0" id="svg_1" stroke-width="1.5" stroke="#000" fill="none"/>
 </g>
</svg>